<svg width="24" height="36" viewBox="0 0 24 36" fill="none" xmlns="http://www.w3.org/2000/svg">
<path d="M22.875 11.2273C22.875 13.6438 21.6248 17.2429 19.7223 21.3577C17.8422 25.4242 15.4104 29.8222 13.201 33.7834C12.7973 34.5072 11.5678 34.5195 11.1473 33.6664C10.1856 31.7154 9.06799 29.6324 7.94153 27.5387L7.81087 27.2958C6.72411 25.2761 5.63325 23.2487 4.65273 21.2942C3.63218 19.26 2.74322 17.3282 2.11085 15.593C1.47299 13.8428 1.125 12.3682 1.125 11.2273C1.125 5.63101 5.94032 1 12 1C18.0597 1 22.875 5.63101 22.875 11.2273Z" stroke="black" stroke-width="2"/>
</svg>
